# AST/ASF file generated using VICON BodyLanguage
# -----------------------------------------------
:version 1.10
:name VICON
:units
  mass 1.0
  length 0.45
  angle deg
:documentation
   .ast/.asf automatically generated from VICON data using
   VICON BodyBuilder and BodyLanguage model FoxedUp or BRILLIANT.MOD
:root
   order TX TY TZ RX RY RZ
   axis XYZ
   position 0 0 0  
   orientation 0 0 0 
:bonedata
  begin
     id 1 
     name lhipjoint
     direction 0.643824 -0.71708 0.266994 
     length 2.52133 
     axis 0 0 0  XYZ
  end
  begin
     id 2 
     name lfemur
     direction 0.34202 -0.939693 0  
     length 7.51824  
     axis 0 0 20  XYZ
    dof rx ry rz
    limits (-160.0 20.0)
           (-70.0 70.0)
           (-60.0 70.0)
  end
  begin
     id 3 
     name ltibia
     direction 0.34202 -0.939693 0   
     length 7.3685   
     axis 0 0 20   XYZ
    dof rx
    limits (-10.0 170.0)
  end
  begin
     id 4 
     name lfoot
     direction 0.105419 -0.289636 0.951314   
     length 2.20972   
     axis -90 7.62852e-016 20   XYZ
    dof rx rz
    limits (-45.0 90.0)
           (-70.0 20.0)
  end
  begin
     id 5 
     name ltoes
     direction 1.53549e-011 -4.21833e-011 1   
     length 1.10139   
     axis -90 7.62852e-016 20   XYZ
    dof rx
    limits (-90.0 20.0)
  end
  begin
     id 6 
     name rhipjoint
     direction -0.608823 -0.743445 0.276811   
     length 2.43192  
     axis 0 0 0  XYZ 
  end
  begin
     id 7 
     name rfemur
     direction -0.34202 -0.939693 0   
     length 7.69715   
     axis 0 0 -20   XYZ
    dof rx ry rz
    limits (-160.0 20.0)
           (-70.0 70.0)
           (-70.0 60.0)
  end
  begin
     id 8 
     name rtibia
     direction -0.34202 -0.939693 0   
     length 7.44924   
     axis 0 0 -20   XYZ
    dof rx
    limits (-10.0 170.0)
 end
 begin
     id 9 
     name rfoot
     direction -0.103614 -0.284677 0.953007   
     length 2.22623  
     axis -90 -7.62852e-016 -20   XYZ
    dof rx rz
    limits (-45.0 90.0)
           (-20.0 70.0)
  end
  begin
     id 10 
     name rtoes
     direction -1.53537e-011 -4.22026e-011 1   
     length 1.11   
     axis -90 -7.62852e-016 -20   XYZ
    dof rx
    limits (-90.0 20.0)
  end
  begin
     id 11 
     name lowerback
     direction -0.0101212 0.99662 -0.0815298   
     length 2.08277   
     axis 0 0 0   XYZ
    dof rx ry rz
    limits (-20.0 45.0)
           (-30.0 30.0)
           (-30.0 30.0)
  end
  begin
     id 12 
     name upperback
     direction 0.024314 0.999591 -0.0150645   
     length 2.08524   
     axis 0 0 0   XYZ
    dof rx ry rz
    limits (-20.0 45.0)
           (-30.0 30.0)
           (-30.0 30.0)
  end
  begin
     id 13 
     name thorax
     direction 0.0285959 0.999323 0.0231357   
     length 2.09645   
     axis 0 0 0   XYZ
    dof rx ry rz
    limits (-20.0 45.0)
           (-30.0 30.0)
           (-30.0 30.0)
  end
  begin
     id 14 
     name lowerneck
     direction -0.065512 0.979301 0.191515   
     length 1.63798   
     axis 0 0 0   XYZ
    dof rx ry rz
    limits (-20.0 45.0)
           (-30.0 30.0)
           (-30.0 30.0)
  end
  begin
     id 15 
     name upperneck
     direction 0.0498479 0.98191 -0.182667   
     length 1.68731   
     axis 0 0 0   XYZ
    dof rx ry rz
    limits (-20.0 45.0)
           (-30.0 30.0)
           (-30.0 30.0)
  end
  begin
     id 16
     name head
     direction 0.0230358 0.996257 -0.0833175  
     length 1.69785  
     axis 0 0 0   XYZ
    dof rx ry rz
    limits (-20.0 45.0)
           (-30.0 30.0)
           (-30.0 30.0)
  end
  begin
     id 17 
     name lclavicle
     direction 0.967963 0.201165 -0.150269  
     length 3.63976  
     axis 0 0 0   XYZ
    dof ry rz
    limits (-20.0 10.0)
           (0.0 20.0)
  end
  begin
     id 18 
     name lhumerus
     direction 1 -4.48954e-011 -2.92837e-028   
     length 5.32462   
     axis 180 -30 -90   XYZ
    dof rx ry rz
    limits (-60.0 90.0)
           (-90.0 90.0)
           (-90.0 90.0)
  end
  begin
     id 19
     name lradius
     direction 1 -4.48958e-011 -6.39511e-027   
     length 3.48402   
     axis 180 -30 -90   XYZ
    dof rx
    limits (-10.0 170.0)
  end
  begin
     id 20
     name lwrist
     direction 1 -4.48975e-011 -1.1413e-026   
     length 1.74201   
     axis 6.88575e-015 90 90   XYZ
    dof ry
    limits (-180.0 0.0)
 end
  begin
     id 21 
     name lhand
     direction 1 -4.48899e-011 -2.28192e-026   
     length 0.572476   
     axis 1.45643e-014 90 90   XYZ
    dof rx rz
    limits (-90.0 90.0)
           (-45.0 45.0)
  end
  begin
     id 22 
     name lfingers
     direction 1 -4.49155e-011 -4.5684e-026   
     length 0.461545   
     axis 2.91283e-014 90 90   XYZ
    dof rx
    limits (0.0 90.0)
  end
  begin
     id 23
     name lthumb
     direction 0.707107 -6.34943e-011 0.707107   
     length 0.662688   
     axis -90 45 -2.25915e-014   XYZ
    dof rx rz
    limits (-45.0 45.0)
           (-45.0 45.0)
  end
  begin
     id 24 
     name rclavicle
     direction -0.964103 0.264019 -0.0282629   
     length 3.54491  
     axis 0 0 0   XYZ 
    dof ry rz
    limits (-10.0 20.0)
           (-20.0 0.0)
  end
  begin
     id 25 
     name rhumerus
     direction -1 -4.48964e-011 -2.45032e-027  
     length 5.33589   
     axis 180 30 90   XYZ
    dof rx ry rz
    limits (-90.0 60.0)
           (-90.0 90.0)
           (-90.0 90.0)
  end
  begin
     id 26 
     name rradius
     direction -1 -4.48987e-011 -1.55093e-027   
     length 3.64134   
     axis 180 30 90   XYZ
    dof rx
    limits (-10.0 170.0)
  end
  begin
     id 27 
     name rwrist
     direction -1 -4.4897e-011 -1.14128e-026   
     length 1.82067   
     axis 6.88575e-015 -90 -90   XYZ
    dof ry
    limits (-180.0 0.0)
  end
  begin
     id 28
     name rhand
     direction -1 -4.49021e-011 -2.28301e-026   
     length 0.734811   
     axis 1.45643e-014 -90 -90   XYZ
    dof rx rz
    limits (-90.0 90.0)
           (-45.0 45.0)
  end
  begin
     id 29
     name rfingers
     direction -1 -4.48862e-011 -4.56319e-026   
     length 0.592424   
     axis 2.91283e-014 -90 -90   XYZ
    dof rx
    limits (0.0 90.0)
  end
  begin
     id 30
     name rthumb
     direction -0.707107 -6.34978e-011 0.707107   
     length 0.850605   
     axis -90 -45 2.25915e-014   XYZ
    dof rx rz
    limits (-45.0 45.0)
           (-45.0 45.0)
  end
:hierarchy
  begin
    root lhipjoint rhipjoint lowerback
    lhipjoint lfemur
    lfemur ltibia
    ltibia lfoot
    lfoot ltoes
    rhipjoint rfemur
    rfemur rtibia
    rtibia rfoot
    rfoot rtoes
    lowerback upperback
    upperback thorax
    thorax lowerneck lclavicle rclavicle
    lowerneck upperneck
    upperneck head
    lclavicle lhumerus
    lhumerus lradius
    lradius lwrist
    lwrist lhand lthumb
    lhand lfingers
    rclavicle rhumerus
    rhumerus rradius
    rradius rwrist
    rwrist rhand rthumb
    rhand rfingers
  end

#!OML:ASF F:\VICON\USERDATA\INSTALL\rory3\rory3.ASF
:FULLY-SPECIFIED
:DEGREES
170
root -3.20589 18.1711 -0.555982 7.6326 18.7591 2.50265
lowerback 15.9305 0.549233 0.0210487
upperback 0.620774 0.742824 0.0159675
thorax -8.28507 0.361893 -0.164424
lowerneck -23.0467 -7.06393 -9.53583
upperneck 19.8609 -8.919 9.47607
head 11.12 -3.63949 3.54108
rclavicle -3.29983e-014 1.70955e-014
rhumerus 45.9433 -9.67291 -44.0258
rradius 44.5548
rwrist 56.035
rhand 1.96204 8.41838
rfingers 7.12502
rthumb 27.4683 -19.5986
lclavicle -3.29983e-014 1.70955e-014
lhumerus 14.3341 -29.7907 84.4986
lradius 121.882
lwrist -2.45037
lhand -7.79433 6.93782
lfingers 7.12502
lthumb 18.1067 36.115
rfemur -33.6597 -4.00936 8.43573
rtibia 37.4122
rfoot -1.91346 -17.6034
rtoes 8.21809
lfemur -12.7975 -6.66218 -4.61817
ltibia 39.3392
lfoot -3.32868 -7.46985
ltoes -31.3701
171
root -3.21152 18.2039 -0.571466 7.60279 19.2112 2.30531
lowerback 16.3899 0.743764 0.436889
upperback 0.842151 1.08502 0.092833
thorax -8.2949 0.51287 -0.400696
lowerneck -23.3635 -7.20934 -10.0576
upperneck 19.5259 -9.10445 10.3254
head 11.1522 -3.65375 3.89939
rclavicle -1.39149e-015 -1.98785e-015
rhumerus 44.9732 -10.9997 -44.7706
rradius 46.3509
rwrist 53.0774
rhand 5.30789 7.55073
rfingers 7.12502
rthumb 30.6636 -19.9143
lclavicle -1.39149e-015 -1.98785e-015
lhumerus 14.9373 -30.2629 84.1985
lradius 121.903
lwrist -1.58687
lhand -8.23572 6.71838
lfingers 7.12502
lthumb 17.682 35.9344
rfemur -33.4009 -3.60181 8.65409
rtibia 36.5719
rfoot -1.83554 -15.9093
rtoes 4.05443
lfemur -13.2066 -6.21727 -4.09891
ltibia 39.73
lfoot -1.73184 -7.18375
ltoes -31.3029
172
root -3.22051 18.2266 -0.571718 7.61513 19.9044 2.11248
lowerback 16.4055 0.953391 0.603739
upperback 1.29379 1.40237 0.207783
thorax -7.81061 0.666862 -0.440457
lowerneck -23.6599 -7.49496 -10.5286
upperneck 18.7019 -9.52419 11.445
head 11.0479 -3.74428 4.299
rclavicle -5.10877e-014 -6.75868e-015
rhumerus 42.8254 -11.6917 -44.1198
rradius 50.2718
rwrist 43.3902
rhand 2.43212 5.23236
rfingers 7.12502
rthumb 27.9178 -22.7124
lclavicle -5.10877e-014 -6.75868e-015
lhumerus 15.8775 -30.8204 83.8486
lradius 121.935
lwrist -1.32559
lhand -8.33163 6.65393
lfingers 7.12502
lthumb 17.5897 35.8782
rfemur -33.0873 -3.43779 8.9452
rtibia 35.6917
rfoot -1.739 -14.1294
rtoes -0.489646
lfemur -13.5857 -6.00756 -3.51692
ltibia 40.0315
lfoot 0.0789534 -7.38077
ltoes -29.8335
173
root -3.23465 18.2416 -0.555268 7.77381 20.6469 1.93414
lowerback 16.2558 1.18211 0.442643
upperback 1.56164 1.68188 0.306782
thorax -7.44365 0.812469 -0.299706
lowerneck -23.678 -7.78562 -10.6562
upperneck 17.8864 -10.0562 12.4433
head 10.8955 -3.88726 4.57796
rclavicle -4.7112e-014 7.95139e-015
rhumerus 39.9676 -11.5596 -43.2693
rradius 55.1783
rwrist 30.8506
rhand -2.12487 2.99157
rfingers 7.12502
rthumb 23.5536 -25.5861
lclavicle -4.7112e-014 7.95139e-015
lhumerus 16.1509 -31.432 83.7267
lradius 122.162
lwrist -1.69278
lhand -8.13284 6.723
lfingers 7.12502
lthumb 17.781 35.9301
rfemur -32.9485 -3.22188 9.26003
rtibia 34.8183
rfoot -1.48116 -12.3573
rtoes -4.34188
lfemur -13.9679 -5.88831 -2.90792
ltibia 40.2445
lfoot 0.593125 -7.55527
ltoes -30.6203
174
root -3.25324 18.2416 -0.526406 8.09059 21.5208 1.86594
lowerback 16.0335 1.32705 -0.0431167
upperback 1.51227 1.79314 0.392411
thorax -7.39103 0.883189 0.0464624
lowerneck -23.0593 -7.90289 -10.4415
upperneck 17.159 -10.4363 13.1066
head 10.6063 -4.0048 4.71253
rclavicle -1.88845e-014 9.54166e-015
rhumerus 37.3969 -11.1491 -44.0845
rradius 59.6776
rwrist 21.2583
rhand -3.90051 1.77892
rfingers 7.12502
rthumb 21.8495 -27.0075
lclavicle -1.88845e-014 9.54166e-015
lhumerus 15.5098 -31.8996 83.8749
lradius 122.477
lwrist -2.37022
lhand -8.05279 6.60276
lfingers 7.12502
lthumb 17.858 35.8028
rfemur -32.9409 -2.93926 9.45262
rtibia 34.0153
rfoot -1.31987 -10.9326
rtoes -5.89902
lfemur -14.4199 -5.79817 -2.34885
ltibia 40.3751
lfoot 1.70184 -8.01686
ltoes -29.4242
175
root -3.27011 18.223 -0.490406 8.46766 22.561 1.90457
lowerback 15.7295 1.23873 -0.54036
upperback 1.32321 1.59137 0.409423
thorax -7.43929 0.801663 0.394664
lowerneck -22.1667 -7.7657 -9.91059
upperneck 16.6692 -10.4718 13.2378
head 10.2551 -4.01608 4.6702
rclavicle -3.24019e-014 4.37326e-015
rhumerus 35.4033 -10.6453 -46.5349
rradius 63.4666
rwrist 16.3301
rhand -2.19547 1.27548
rfingers 7.12502
rthumb 23.4859 -27.3109
lclavicle -3.24019e-014 4.37326e-015
lhumerus 14.2994 -31.968 84.0375
lradius 122.775
lwrist -3.38704
lhand -8.36061 6.2862
lfingers 7.12502
lthumb 17.5618 35.513
rfemur -32.9838 -2.78067 9.55401
rtibia 33.3908
rfoot -1.18826 -9.90833
rtoes -5.99381
lfemur -14.8678 -5.72066 -1.87024
ltibia 40.4208
lfoot 4.07015 -8.52701
ltoes -26.4863
